<?xml version="1.0" standalone="no"?>
<!DOCTYPE svg PUBLIC "-//W3C//DTD SVG 20010904//EN"
 "http://www.w3.org/TR/2001/REC-SVG-20010904/DTD/svg10.dtd">
<svg version="1.0" xmlns="http://www.w3.org/2000/svg"
 width="512.000000pt" height="512.000000pt" viewBox="0 0 512.000000 512.000000"
 preserveAspectRatio="xMidYMid meet">
<metadata>
Created by potrace 1.14, written by Peter Selinger 2001-2017
</metadata>
<g transform="translate(0.000000,512.000000) scale(0.100000,-0.100000)"
fill="#000000" stroke="none">
<path d="M1870 4530 c-288 -60 -459 -405 -460 -927 0 -141 -1 -153 -18 -153
-10 0 -78 5 -152 11 -327 26 -620 -40 -748 -168 -92 -92 -119 -193 -82 -303
63 -188 276 -398 650 -642 80 -52 174 -111 210 -131 110 -61 108 -51 33 -142
-201 -247 -450 -689 -553 -980 -60 -171 -51 -339 22 -414 112 -116 364 -129
675 -35 259 78 619 245 954 444 l95 57 104 -99 c122 -118 330 -293 408 -344
202 -135 428 -112 613 63 51 48 79 85 104 137 53 109 67 173 72 344 l5 152 97
0 c139 0 372 18 476 36 257 46 377 149 346 295 -39 180 -261 435 -536 615 -49
32 -91 59 -93 60 -2 1 33 47 78 101 275 330 421 655 422 938 1 246 -124 396
-390 466 -99 27 -334 37 -453 20 -205 -29 -414 -99 -636 -212 l-153 -77 -104
157 c-198 299 -287 408 -422 520 -201 167 -406 243 -564 211z m383 -590 c32
-12 90 -44 130 -70 78 -53 395 -337 387 -348 -2 -4 -95 -73 -206 -154 l-202
-146 -321 92 c-177 51 -325 96 -329 100 -4 5 -6 49 -5 100 2 148 59 288 144
360 37 31 98 64 154 83 56 18 176 10 248 -17z m1789 -354 c101 -30 185 -118
230 -241 26 -72 36 -236 19 -316 -20 -93 -127 -309 -236 -474 l-55 -83 -93 56
c-50 31 -162 92 -247 136 l-155 81 -69 125 c-38 69 -119 214 -181 322 l-112
196 116 45 c203 79 400 138 531 160 59 10 210 6 252 -7z m-2648 -265 c29 -6
30 -9 42 -92 26 -180 80 -348 178 -553 37 -76 66 -142 64 -146 -2 -5 -53 -67
-114 -138 l-112 -130 -108 59 c-161 88 -350 204 -450 275 -270 192 -417 401
-390 549 8 39 55 99 95 120 44 22 179 46 311 54 153 10 444 11 484 2z m1712
-211 c87 -130 127 -200 117 -200 -5 0 -44 15 -88 34 -44 18 -161 64 -260 101
-99 37 -181 69 -183 70 -5 4 137 100 217 147 l64 37 32 -42 c17 -23 63 -89
101 -147z m-1114 108 c148 -39 267 -75 266 -78 -2 -4 -100 -110 -218 -234
l-214 -227 -24 62 c-47 126 -82 296 -97 472 -6 58 -4 77 5 77 7 0 134 -32 282
-72z m814 -262 c428 -176 540 -232 574 -289 38 -62 200 -543 200 -592 0 -12
-187 -172 -406 -348 l-71 -56 -419 119 c-230 66 -439 127 -464 135 -42 14 -50
23 -111 123 -85 136 -147 247 -194 343 l-38 75 59 56 c138 130 335 295 539
451 55 42 101 77 101 77 1 0 105 -42 230 -94z m923 -471 c88 -52 162 -99 165
-104 8 -12 -96 -133 -161 -187 l-49 -42 -24 92 c-13 50 -40 146 -60 214 -20
67 -36 122 -34 122 2 0 75 -43 163 -95z m-1951 -182 c12 -32 43 -102 70 -155
49 -97 49 -98 23 -91 -46 11 -150 52 -216 86 l-65 32 34 50 c45 67 116 146
125 140 5 -2 18 -30 29 -62z m2334 -88 c163 -130 256 -246 265 -329 12 -105
-81 -250 -177 -277 -28 -8 -113 -13 -229 -13 l-184 -1 -44 205 c-24 113 -46
216 -49 230 -4 22 6 33 83 92 48 37 117 91 153 122 36 30 68 55 71 56 3 0 53
-38 111 -85z m-2532 -161 c99 -64 259 -138 359 -167 l83 -24 82 -159 c83 -160
167 -300 257 -425 l48 -68 -42 -24 c-256 -147 -701 -352 -941 -434 -251 -84
-420 -103 -499 -54 -77 47 -117 150 -97 247 48 234 369 799 623 1097 27 31 51
57 53 57 2 0 35 -21 74 -46z m2059 -271 c17 -87 31 -164 31 -172 0 -11 -20
-13 -112 -7 -118 8 -278 32 -290 44 -4 4 56 58 132 121 76 63 151 127 166 142
15 16 31 29 34 29 4 0 21 -71 39 -157z m-709 -242 c0 -9 -284 -193 -362 -236
l-67 -36 -39 68 c-84 145 -182 358 -182 397 0 9 97 -17 325 -87 179 -56 325
-103 325 -106z m297 -61 c79 -16 216 -38 305 -50 90 -12 169 -24 176 -26 35
-10 -25 -342 -87 -477 -40 -89 -75 -126 -156 -163 -187 -86 -324 -64 -525 86
-86 64 -287 254 -341 321 l-28 36 52 28 c85 46 297 180 362 229 33 25 69 45
80 45 11 0 84 -13 162 -29z"/>
<path d="M2787 2720 c-116 -30 -287 -159 -355 -271 -86 -142 -51 -319 92 -460
188 -187 485 -193 684 -14 119 107 179 333 128 483 -32 93 -147 187 -294 238
-79 27 -197 38 -255 24z m202 -139 c59 -18 165 -86 208 -132 27 -30 46 -101
38 -140 l-7 -29 -46 62 c-79 104 -72 100 -117 64 -34 -27 -40 -14 68 -150 67
-84 68 -86 57 -121 -6 -19 -15 -35 -18 -35 -4 0 -29 31 -55 69 -27 38 -59 79
-72 91 -22 21 -24 21 -49 5 -35 -23 -33 -39 12 -94 21 -25 52 -66 69 -91 l31
-45 -23 -17 c-22 -17 -23 -16 -81 59 -74 96 -87 105 -115 77 l-21 -22 46 -68
c50 -74 56 -94 29 -94 -11 1 -38 30 -66 70 -47 70 -62 79 -98 60 -23 -13 -24
-31 -5 -68 7 -15 17 -37 20 -49 6 -19 4 -23 -16 -23 -43 0 -123 47 -176 104
-119 126 -131 264 -34 391 95 126 261 176 421 126z"/>
<path d="M2656 2389 c-26 -52 -50 -113 -53 -136 -5 -39 -3 -42 27 -58 40 -21
60 -7 60 44 l1 36 14 -40 c8 -22 15 -41 15 -42 0 -2 14 -3 30 -3 29 0 30 2 30
45 0 32 10 66 35 115 19 38 32 75 29 83 -7 19 -47 36 -99 43 l-42 6 -47 -93z"/>
</g>
</svg>
